<?xml version="1.0" encoding="UTF-8" standalone="no"?>
<!-- Created with Inkscape (http://www.inkscape.org/) -->

<svg
   width="36.157955mm"
   height="17.577965mm"
   viewBox="0 0 36.157955 17.577965"
   version="1.1"
   id="svg1"
   inkscape:version="1.4.2 (ebf0e940d0, 2025-05-08)"
   sodipodi:docname="logo_new.svg"
   xmlns:inkscape="http://www.inkscape.org/namespaces/inkscape"
   xmlns:sodipodi="http://sodipodi.sourceforge.net/DTD/sodipodi-0.dtd"
   xmlns="http://www.w3.org/2000/svg"
   xmlns:svg="http://www.w3.org/2000/svg">
  <sodipodi:namedview
     id="namedview1"
     pagecolor="#ffffff"
     bordercolor="#000000"
     borderopacity="0.25"
     inkscape:showpageshadow="2"
     inkscape:pageopacity="0.0"
     inkscape:pagecheckerboard="0"
     inkscape:deskcolor="#d1d1d1"
     inkscape:document-units="mm"
     inkscape:zoom="4.0315404"
     inkscape:cx="62.259081"
     inkscape:cy="29.517254"
     inkscape:window-width="1076"
     inkscape:window-height="991"
     inkscape:window-x="26"
     inkscape:window-y="23"
     inkscape:window-maximized="0"
     inkscape:current-layer="layer1" />
  <defs
     id="defs1">
    <clipPath
       clipPathUnits="userSpaceOnUse"
       id="clipPath88">
      <path
         d="M 0,465.505 H 776.489 V 0 H 0 Z"
         transform="translate(-80.7964,-364.58441)"
         id="path88" />
    </clipPath>
    <clipPath
       clipPathUnits="userSpaceOnUse"
       id="clipPath90">
      <path
         d="M 0,465.505 H 776.489 V 0 H 0 Z"
         transform="translate(-100.34181,-359.77981)"
         id="path90" />
    </clipPath>
    <clipPath
       clipPathUnits="userSpaceOnUse"
       id="clipPath92">
      <path
         d="M 0,465.505 H 776.489 V 0 H 0 Z"
         transform="translate(-118.2696,-352.18841)"
         id="path92" />
    </clipPath>
    <clipPath
       clipPathUnits="userSpaceOnUse"
       id="clipPath94">
      <path
         d="M 0,465.505 H 776.489 V 0 H 0 Z"
         transform="translate(-143.33841,-359.77981)"
         id="path94" />
    </clipPath>
    <clipPath
       clipPathUnits="userSpaceOnUse"
       id="clipPath96">
      <path
         d="M 0,465.505 H 776.489 V 0 H 0 Z"
         transform="translate(-161.0088,-352.38821)"
         id="path96" />
    </clipPath>
    <clipPath
       clipPathUnits="userSpaceOnUse"
       id="clipPath98">
      <path
         d="M 0,465.505 H 776.489 V 0 H 0 Z"
         transform="translate(-86.966102,-347.47151)"
         id="path98" />
    </clipPath>
    <clipPath
       clipPathUnits="userSpaceOnUse"
       id="clipPath100">
      <path
         d="M 0,465.505 H 776.489 V 0 H 0 Z"
         transform="translate(-95.409205,-331.51001)"
         id="path100" />
    </clipPath>
    <clipPath
       clipPathUnits="userSpaceOnUse"
       id="clipPath102">
      <path
         d="M 0,465.505 H 776.489 V 0 H 0 Z"
         transform="translate(-121.44471,-336.90081)"
         id="path102" />
    </clipPath>
    <clipPath
       clipPathUnits="userSpaceOnUse"
       id="clipPath104">
      <path
         d="M 0,465.505 H 776.489 V 0 H 0 Z"
         transform="translate(-136.6323,-331.23271)"
         id="path104" />
    </clipPath>
    <clipPath
       clipPathUnits="userSpaceOnUse"
       id="clipPath106">
      <path
         d="M 0,465.505 H 776.489 V 0 H 0 Z"
         transform="translate(-168.1261,-338.01071)"
         id="path106" />
    </clipPath>
    <clipPath
       clipPathUnits="userSpaceOnUse"
       id="clipPath108">
      <path
         d="M 0,465.505 H 776.489 V 0 H 0 Z"
         transform="translate(-173.54601,-341.33671)"
         id="path108" />
    </clipPath>
  </defs>
  <g
     inkscape:label="Layer 1"
     inkscape:groupmode="layer"
     id="layer1"
     transform="translate(-79.904167,-78.052082)">
    <path
       id="path87"
       d="m 0,0 c 0.304,0.342 0.742,0.513 1.312,0.513 h 1.354 c 0.551,0 1,0.174 1.347,0.52 C 4.36,1.38 4.534,1.829 4.534,2.38 v 4.434 c 0,0.361 0.121,0.663 0.363,0.906 0.243,0.242 0.544,0.363 0.905,0.363 h 3.45 c 0.362,0 0.664,-0.121 0.906,-0.363 0.242,-0.243 0.363,-0.545 0.363,-0.906 v -18.105 c 0,-0.361 -0.121,-0.663 -0.363,-0.905 -0.242,-0.243 -0.544,-0.364 -0.906,-0.364 h -3.45 c -0.361,0 -0.662,0.121 -0.905,0.364 -0.242,0.242 -0.363,0.544 -0.363,0.905 v 3.692 c 0,0.817 -0.143,1.416 -0.428,1.796 -0.285,0.381 -0.765,0.642 -1.44,0.784 l -0.214,0.043 c -0.988,0.19 -1.72,0.554 -2.195,1.091 -0.476,0.537 -0.713,1.29 -0.713,2.26 v 0.228 c 0,0.589 0.152,1.055 0.456,1.397 m -2.673,-12.196 c -0.243,-0.243 -0.544,-0.364 -0.905,-0.364 h -3.45 c -0.362,0 -0.663,0.121 -0.906,0.364 -0.242,0.242 -0.363,0.544 -0.363,0.905 V 6.814 c 0,0.361 0.121,0.663 0.363,0.906 0.243,0.242 0.544,0.363 0.906,0.363 h 3.45 c 0.361,0 0.662,-0.121 0.905,-0.363 0.242,-0.243 0.363,-0.545 0.363,-0.906 v -18.105 c 0,-0.361 -0.121,-0.663 -0.363,-0.905"
       style="fill:#ffffff;fill-opacity:1;fill-rule:nonzero;stroke:none"
       transform="matrix(0.35277776,0,0,-0.35277776,82.842205,81.004269)"
       clip-path="url(#clipPath88)" />
    <path
       id="path89"
       d="m 0,0 c 0.409,-0.751 0.974,-1.34 1.696,-1.768 0.722,-0.427 1.535,-0.641 2.438,-0.641 0.913,0 1.73,0.214 2.452,0.641 C 7.309,-1.34 7.874,-0.751 8.283,0 8.691,0.751 8.896,1.602 8.896,2.552 8.896,3.502 8.691,4.357 8.283,5.118 7.874,5.878 7.309,6.473 6.586,6.9 5.864,7.328 5.047,7.542 4.134,7.542 3.231,7.542 2.418,7.328 1.696,6.9 0.974,6.473 0.409,5.878 0,5.118 -0.409,4.357 -0.613,3.502 -0.613,2.552 -0.613,1.602 -0.409,0.751 0,0 m -1.39,-6.679 c -1.63,0.908 -2.906,2.167 -3.828,3.778 -0.922,1.611 -1.383,3.428 -1.383,5.453 0,2.024 0.461,3.844 1.383,5.46 0.922,1.616 2.198,2.88 3.828,3.792 1.63,0.913 3.467,1.369 5.51,1.369 2.053,0 3.897,-0.456 5.531,-1.369 1.635,-0.912 2.916,-2.176 3.843,-3.792 0.926,-1.616 1.39,-3.436 1.39,-5.46 0,-2.025 -0.462,-3.842 -1.383,-5.453 -0.922,-1.611 -2.203,-2.87 -3.842,-3.778 -1.64,-0.908 -3.486,-1.362 -5.539,-1.362 -2.043,0 -3.88,0.454 -5.51,1.362"
       style="fill:#ffffff;fill-opacity:1;fill-rule:nonzero;stroke:none"
       transform="matrix(0.35277776,0,0,-0.35277776,89.73739,82.699224)"
       clip-path="url(#clipPath90)" />
    <path
       id="path91"
       d="M 0,0 C -0.214,0.109 -0.371,0.271 -0.471,0.484 -0.57,0.698 -0.62,0.958 -0.62,1.262 v 9.665 c 0,0.675 0.163,1.191 0.492,1.547 0.327,0.357 0.81,0.535 1.446,0.535 h 0.271 c 0.703,0 1.328,-0.157 1.875,-0.471 0.547,-0.313 0.977,-0.774 1.29,-1.383 C 5.068,10.547 5.225,9.811 5.225,8.946 V 6.223 c 0,-0.219 0.05,-0.419 0.15,-0.599 0.099,-0.181 0.239,-0.321 0.42,-0.42 0.181,-0.1 0.38,-0.15 0.599,-0.15 h 1.768 c 0.351,0 0.653,0.057 0.905,0.171 0.251,0.114 0.444,0.278 0.577,0.492 0.133,0.214 0.2,0.468 0.2,0.762 0,0.257 -0.041,0.476 -0.121,0.656 C 9.642,7.315 9.516,7.463 9.345,7.577 9.174,7.691 8.96,7.772 8.703,7.819 L 8.404,7.876 C 7.824,7.991 7.387,8.245 7.092,8.639 6.798,9.034 6.65,9.625 6.65,10.414 v 0.299 c 0,0.409 0.088,0.746 0.264,1.013 0.176,0.266 0.44,0.446 0.792,0.542 l 0.256,0.071 c 0.285,0.076 0.516,0.173 0.691,0.292 0.176,0.119 0.307,0.264 0.392,0.435 0.086,0.171 0.129,0.38 0.129,0.627 0,0.276 -0.062,0.511 -0.186,0.706 -0.123,0.194 -0.301,0.344 -0.534,0.449 -0.233,0.104 -0.506,0.157 -0.82,0.157 H 3.3 c -1.283,0 -2.257,0.306 -2.923,0.919 -0.665,0.613 -0.997,1.423 -0.997,2.431 v 0.285 c 0,0.589 0.157,1.043 0.47,1.361 0.314,0.319 0.775,0.478 1.383,0.478 h 7.014 c 1.378,0 2.566,-0.23 3.564,-0.691 0.998,-0.461 1.761,-1.098 2.289,-1.911 0.527,-0.812 0.791,-1.737 0.791,-2.773 0,-0.674 -0.102,-1.299 -0.307,-1.874 -0.205,-0.575 -0.487,-1.072 -0.848,-1.49 -0.247,-0.285 -0.366,-0.59 -0.357,-0.912 0.01,-0.324 0.152,-0.59 0.428,-0.799 0.684,-0.513 1.216,-1.121 1.597,-1.824 0.38,-0.704 0.57,-1.493 0.57,-2.367 0,-1.264 -0.313,-2.345 -0.941,-3.243 C 14.406,1.696 13.512,1.017 12.353,0.556 11.193,0.095 9.825,-0.141 8.247,-0.15 L 0.805,-0.164 C 0.482,-0.164 0.214,-0.109 0,0"
       style="fill:#ffffff;fill-opacity:1;fill-rule:nonzero;stroke:none"
       transform="matrix(0.35277776,0,0,-0.35277776,96.061918,85.377302)"
       clip-path="url(#clipPath92)" />
    <path
       id="path93"
       d="m 0,0 c 0.409,-0.751 0.974,-1.34 1.696,-1.768 0.722,-0.427 1.535,-0.641 2.438,-0.641 0.913,0 1.73,0.214 2.452,0.641 C 7.309,-1.34 7.874,-0.751 8.283,0 8.691,0.751 8.896,1.602 8.896,2.552 8.896,3.502 8.691,4.357 8.283,5.118 7.874,5.878 7.309,6.473 6.586,6.9 5.864,7.328 5.047,7.542 4.134,7.542 3.231,7.542 2.418,7.328 1.696,6.9 0.974,6.473 0.409,5.878 0,5.118 -0.409,4.357 -0.613,3.502 -0.613,2.552 -0.613,1.602 -0.409,0.751 0,0 m -1.39,-6.679 c -1.63,0.908 -2.906,2.167 -3.828,3.778 -0.922,1.611 -1.383,3.428 -1.383,5.453 0,2.024 0.461,3.844 1.383,5.46 0.922,1.616 2.198,2.88 3.828,3.792 1.63,0.913 3.467,1.369 5.51,1.369 2.053,0 3.897,-0.456 5.531,-1.369 1.635,-0.912 2.916,-2.176 3.843,-3.792 0.926,-1.616 1.39,-3.436 1.39,-5.46 0,-2.025 -0.462,-3.842 -1.383,-5.453 -0.922,-1.611 -2.203,-2.87 -3.842,-3.778 -1.64,-0.908 -3.486,-1.362 -5.539,-1.362 -2.043,0 -3.88,0.454 -5.51,1.362"
       style="fill:#ffffff;fill-opacity:1;fill-rule:nonzero;stroke:none"
       transform="matrix(0.35277776,0,0,-0.35277776,104.90563,82.699224)"
       clip-path="url(#clipPath94)" />
    <path
       id="path95"
       d="m 0,0 c -0.242,0.242 -0.363,0.596 -0.363,1.062 v 10.079 c 0,0.465 0.123,0.82 0.37,1.062 0.247,0.242 0.599,0.364 1.055,0.364 h 9.894 c 0.456,0 0.808,-0.122 1.055,-0.364 0.247,-0.242 0.371,-0.597 0.371,-1.062 V 8.917 c 0,-0.466 -0.121,-0.82 -0.363,-1.062 C 11.775,7.613 11.422,7.492 10.956,7.492 H 6.95 C 6.684,7.492 6.451,7.449 6.251,7.363 6.052,7.278 5.897,7.159 5.788,7.007 5.679,6.854 5.624,6.674 5.624,6.465 V 6.308 C 5.624,6.099 5.679,5.916 5.788,5.759 5.897,5.603 6.052,5.481 6.251,5.396 6.451,5.31 6.684,5.268 6.95,5.268 h 5.531 c 0.466,0 0.82,-0.122 1.063,-0.364 0.242,-0.242 0.363,-0.596 0.363,-1.062 V 1.062 C 13.907,0.596 13.786,0.242 13.544,0 13.301,-0.243 12.947,-0.364 12.481,-0.364 H 1.062 C 0.596,-0.364 0.243,-0.243 0,0 m 13.544,19.916 c 0.242,-0.243 0.363,-0.597 0.363,-1.062 v -2.78 c 0,-0.466 -0.121,-0.82 -0.363,-1.062 -0.243,-0.242 -0.597,-0.364 -1.063,-0.364 H 1.447 c -0.608,0 -1.062,0.145 -1.362,0.435 -0.299,0.29 -0.448,0.73 -0.448,1.319 v 0.327 c 0,0.704 0.14,1.324 0.42,1.861 0.28,0.537 0.687,0.953 1.219,1.247 0.532,0.295 1.169,0.442 1.911,0.442 h 9.294 c 0.466,0 0.82,-0.121 1.063,-0.363"
       style="fill:#ffffff;fill-opacity:1;fill-rule:nonzero;stroke:none"
       transform="matrix(0.35277776,0,0,-0.35277776,111.13936,85.306817)"
       clip-path="url(#clipPath96)" />
    <path
       id="path97"
       d="m 0,0 c 1.065,-0.78 1.898,-1.859 2.498,-3.238 0.599,-1.379 0.899,-2.943 0.899,-4.692 0,-1.749 -0.289,-3.311 -0.866,-4.684 -0.577,-1.374 -1.393,-2.451 -2.447,-3.23 -1.054,-0.779 -2.271,-1.169 -3.65,-1.169 -0.448,0 -0.872,0.056 -1.27,0.169 -0.398,0.112 -0.838,0.269 -1.32,0.47 l -0.05,0.017 c -0.382,0.157 -0.71,0.219 -0.984,0.185 -0.275,-0.033 -0.483,-0.165 -0.623,-0.395 -0.14,-0.23 -0.21,-0.547 -0.21,-0.95 v -5.046 c 0,-0.628 -0.129,-1.082 -0.387,-1.362 -0.258,-0.28 -0.712,-0.421 -1.362,-0.421 h -2.977 c -0.583,0 -1.021,0.146 -1.312,0.438 -0.291,0.291 -0.437,0.739 -0.437,1.345 V -0.85 c 0,0.561 0.146,0.982 0.437,1.262 0.291,0.28 0.712,0.421 1.261,0.421 h 1.447 c 0.774,0 1.41,-0.186 1.909,-0.556 0.499,-0.37 0.861,-0.849 1.085,-1.438 0.224,-0.588 0.336,-1.219 0.336,-1.892 v -4.642 c 0,-0.639 0.118,-1.172 0.353,-1.598 0.236,-0.426 0.555,-0.739 0.959,-0.942 0.404,-0.201 0.852,-0.302 1.345,-0.302 0.438,0 0.83,0.106 1.178,0.319 0.348,0.213 0.619,0.522 0.816,0.925 0.196,0.404 0.294,0.875 0.294,1.413 0,0.572 -0.09,1.071 -0.269,1.497 -0.18,0.426 -0.441,0.76 -0.782,1.001 -0.342,0.241 -0.749,0.362 -1.22,0.362 -0.302,0 -0.555,0.114 -0.756,0.344 -0.202,0.23 -0.303,0.653 -0.303,1.27 v 1.161 c 0,1.053 0.224,1.864 0.672,2.43 0.449,0.566 1.038,0.888 1.766,0.967 0.079,0.011 0.196,0.017 0.354,0.017 1.345,0 2.55,-0.39 3.616,-1.169"
       style="fill:#16d951;fill-opacity:1;fill-rule:nonzero;stroke:none"
       transform="matrix(0.35277776,0,0,-0.35277776,85.018739,87.041319)"
       clip-path="url(#clipPath98)" />
    <path
       id="path99"
       d="m 0,0 c -1.054,0.768 -1.878,1.839 -2.472,3.212 -0.595,1.374 -0.892,2.924 -0.892,4.651 0,1.749 0.3,3.327 0.9,4.734 0.6,1.408 1.427,2.515 2.481,3.322 1.054,0.808 2.248,1.211 3.582,1.211 0.695,0 1.337,-0.109 1.926,-0.328 0.589,-0.218 1.124,-0.518 1.606,-0.9 0.202,-0.167 0.398,-0.277 0.589,-0.327 0.19,-0.051 0.376,-0.045 0.555,0.016 0.179,0.062 0.353,0.177 0.522,0.345 l 0.05,0.051 c 0.291,0.291 0.606,0.498 0.942,0.622 0.336,0.123 0.813,0.185 1.429,0.185 h 1.565 c 0.583,0 1.019,-0.135 1.311,-0.404 0.292,-0.269 0.438,-0.684 0.438,-1.245 V 1.119 c 0,-0.685 -0.152,-1.181 -0.454,-1.489 -0.303,-0.309 -0.791,-0.463 -1.464,-0.463 h -1.295 c -0.796,0 -1.438,0.219 -1.926,0.657 C 8.906,0.261 8.558,0.782 8.35,1.388 8.143,1.993 8.04,2.576 8.04,3.137 L 8.056,8.166 C 8.056,8.704 7.955,9.175 7.754,9.579 7.552,9.982 7.258,10.293 6.871,10.512 6.484,10.731 6.021,10.84 5.483,10.84 5.034,10.84 4.628,10.725 4.263,10.495 3.899,10.265 3.616,9.937 3.414,9.511 3.212,9.085 3.111,8.597 3.111,8.048 3.111,7.51 3.212,7.028 3.414,6.602 3.616,6.175 3.885,5.845 4.222,5.609 4.558,5.374 4.928,5.256 5.332,5.256 5.623,5.256 5.878,5.149 6.097,4.936 6.315,4.723 6.425,4.454 6.425,4.129 V 1.724 C 6.425,1.23 6.299,0.763 6.046,0.32 5.794,-0.124 5.455,-0.48 5.029,-0.749 4.603,-1.018 4.149,-1.152 3.667,-1.152 H 3.582 C 2.248,-1.152 1.054,-0.768 0,0"
       style="fill:#16d951;fill-opacity:1;fill-rule:nonzero;stroke:none"
       transform="matrix(0.35277776,0,0,-0.35277776,87.997278,92.672182)"
       clip-path="url(#clipPath100)" />
    <path
       id="path101"
       d="m 0,0 c 0.157,-0.314 0.488,-0.471 0.992,-0.471 h 0.824 c 0.494,0 0.844,0.126 1.052,0.378 0.207,0.252 0.311,0.692 0.311,1.321 V 4.457 C 3.179,4.748 3.086,4.992 2.901,5.189 2.716,5.385 2.478,5.483 2.186,5.483 H 1.682 C 1.412,5.483 1.191,5.396 1.017,5.222 0.843,5.048 0.746,4.827 0.723,4.558 L 0.689,4.188 C 0.589,2.999 0.42,2.085 0.185,1.446 0.162,1.379 0.134,1.312 0.101,1.244 -0.123,0.729 -0.157,0.313 0,0 m -9.091,-0.9 c 0.208,0.342 0.519,0.608 0.934,0.799 l 0.319,0.134 c 0.337,0.146 0.633,0.396 0.892,0.749 0.258,0.353 0.476,0.816 0.655,1.387 0.18,0.572 0.32,1.251 0.421,2.035 l 0.639,4.912 c 0.09,0.706 0.376,1.264 0.858,1.673 0.482,0.409 1.087,0.614 1.816,0.614 h 9.503 c 0.83,0 1.489,-0.213 1.977,-0.639 C 9.41,10.338 9.654,9.76 9.654,9.032 V 0.555 c 0,-0.292 0.098,-0.536 0.295,-0.732 0.196,-0.196 0.44,-0.294 0.731,-0.294 h 0.303 c 0.37,0 0.661,-0.152 0.874,-0.454 0.213,-0.303 0.32,-0.718 0.32,-1.245 L 12.16,-8.057 c 0,-0.527 -0.151,-0.941 -0.454,-1.244 -0.303,-0.303 -0.718,-0.454 -1.244,-0.454 H 8.729 c -0.864,0 -1.497,0.199 -1.901,0.597 -0.403,0.398 -0.605,0.984 -0.605,1.757 v 0.152 c 0,0.291 -0.098,0.535 -0.295,0.731 -0.196,0.196 -0.439,0.295 -0.731,0.295 h -7.636 c -0.292,0 -0.536,-0.099 -0.732,-0.295 -0.196,-0.196 -0.294,-0.44 -0.294,-0.731 v -0.152 c 0,-0.773 -0.202,-1.359 -0.606,-1.757 -0.403,-0.398 -1.037,-0.597 -1.9,-0.597 h -1.732 c -0.516,0 -0.928,0.151 -1.237,0.454 -0.308,0.303 -0.462,0.717 -0.462,1.244 v 5.887 c 0,0.504 0.103,0.928 0.311,1.27"
       style="fill:#16d951;fill-opacity:1;fill-rule:nonzero;stroke:none"
       transform="matrix(0.35277776,0,0,-0.35277776,97.182024,90.770428)"
       clip-path="url(#clipPath102)" />
    <path
       id="path103"
       d="m 0,0 c -0.369,0.37 -0.555,0.863 -0.555,1.48 v 13.556 c 0,0.628 0.186,1.124 0.555,1.489 0.37,0.364 0.863,0.546 1.481,0.546 h 2.27 c 0.65,0 1.158,-0.187 1.522,-0.563 0.364,-0.376 0.536,-0.889 0.513,-1.539 L 5.668,11.874 c -0.011,-0.347 0.081,-0.6 0.278,-0.757 0.197,-0.157 0.421,-0.19 0.673,-0.101 0.252,0.09 0.439,0.286 0.563,0.589 l 1.262,3.213 c 0.325,0.807 0.751,1.384 1.278,1.732 0.527,0.347 1.25,0.521 2.17,0.521 h 3.38 c 0.628,0 1.124,-0.182 1.489,-0.546 0.364,-0.365 0.546,-0.861 0.546,-1.489 V 1.48 C 17.307,0.863 17.125,0.37 16.761,0 16.396,-0.37 15.9,-0.555 15.272,-0.555 h -2.271 c -0.627,0 -1.127,0.188 -1.496,0.563 -0.37,0.376 -0.549,0.883 -0.538,1.522 L 11,5.819 c 0,0.438 -0.112,0.737 -0.336,0.9 C 10.439,6.881 10.185,6.898 9.899,6.77 9.613,6.641 9.403,6.414 9.268,6.089 L 7.149,0.891 C 6.947,0.42 6.624,0.061 6.182,-0.185 5.738,-0.432 5.169,-0.555 4.474,-0.555 H 1.481 C 0.863,-0.555 0.37,-0.37 0,0"
       style="fill:#16d951;fill-opacity:1;fill-rule:nonzero;stroke:none"
       transform="matrix(0.35277776,0,0,-0.35277776,102.53987,92.770006)"
       clip-path="url(#clipPath104)" />
    <path
       id="path105"
       d="m 0,0 c -0.241,-0.427 -0.574,-0.76 -1,-1.001 -0.426,-0.241 -0.903,-0.361 -1.43,-0.361 -0.528,0 -1.001,0.12 -1.421,0.361 -0.421,0.241 -0.749,0.578 -0.984,1.009 -0.235,0.432 -0.354,0.917 -0.354,1.455 0,0.539 0.119,1.02 0.354,1.447 0.235,0.426 0.563,0.759 0.984,1 0.42,0.241 0.893,0.362 1.421,0.362 0.006,0 0.011,-0.002 0.017,-0.002 v 6.309 c -1.761,0 -3.345,-0.392 -4.751,-1.177 -1.408,-0.785 -2.509,-1.87 -3.306,-3.255 -0.795,-1.384 -1.194,-2.946 -1.194,-4.684 0,-1.738 0.399,-3.302 1.194,-4.692 0.797,-1.391 1.898,-2.479 3.306,-3.263 1.406,-0.785 2.99,-1.178 4.751,-1.178 1.761,0 3.344,0.393 4.751,1.178 1.408,0.784 2.509,1.869 3.305,3.254 0.796,1.385 1.194,2.946 1.194,4.684 H 0.362 C 0.362,0.908 0.242,0.426 0,0"
       style="fill:#16d951;fill-opacity:1;fill-rule:nonzero;stroke:none"
       transform="matrix(0.35277776,0,0,-0.35277776,113.65018,90.378879)"
       clip-path="url(#clipPath106)" />
    <path
       id="path107"
       d="m 0,0 h -4.512 c -0.783,0 -1.417,0.635 -1.417,1.417 v 4.419 c 0,0.783 0.634,1.417 1.417,1.417 H 0 c 0.783,0 1.417,-0.634 1.417,-1.417 V 1.417 C 1.417,0.635 0.783,0 0,0"
       style="fill:#ffffff;fill-opacity:1;fill-rule:nonzero;stroke:none"
       transform="matrix(0.35277776,0,0,-0.35277776,115.5622,89.20554)"
       clip-path="url(#clipPath108)" />
  </g>
</svg>
