<?xml version="1.0" encoding="UTF-8" standalone="no"?>
<!-- Generator: Adobe Illustrator 26.0.1, SVG Export Plug-In . SVG Version: 6.00 Build 0)  -->

<svg
   version="1.1"
   id="Слой_1"
   x="0px"
   y="0px"
   viewBox="0 0 161.59 39.439999"
   xml:space="preserve"
   sodipodi:docname="logo.svg"
   inkscape:version="1.4.2 (ebf0e940d0, 2025-05-08)"
   width="181.79643"
   height="44.371876"
   xmlns:inkscape="http://www.inkscape.org/namespaces/inkscape"
   xmlns:sodipodi="http://sodipodi.sourceforge.net/DTD/sodipodi-0.dtd"
   xmlns="http://www.w3.org/2000/svg"
   xmlns:svg="http://www.w3.org/2000/svg"><defs
   id="defs8" /><sodipodi:namedview
   id="namedview8"
   pagecolor="#ffffff"
   bordercolor="#000000"
   borderopacity="0.25"
   inkscape:showpageshadow="2"
   inkscape:pageopacity="0.0"
   inkscape:pagecheckerboard="0"
   inkscape:deskcolor="#d1d1d1"
   inkscape:zoom="1.53386"
   inkscape:cx="114.09125"
   inkscape:cy="37.16115"
   inkscape:window-width="1920"
   inkscape:window-height="1011"
   inkscape:window-x="0"
   inkscape:window-y="0"
   inkscape:window-maximized="1"
   inkscape:current-layer="Слой_1"
   showgrid="false" />
<style
   type="text/css"
   id="style1">
	.st0{display:none;fill:#221E1F;}
	.st1{fill:#FFFFFF;}
	.st2{display:none;}
	.st3{display:inline;fill:#FFFFFF;}
</style>

<path
   class="st1"
   d="m 28.59,19.14 c 0,-5.77 2.43,-10.99 6.3,-14.74 V 0.75 H 23.24 V 13.59 H 11.65 V 0.76 H 0 V 38.68 H 11.64 V 23.73 h 11.59 v 14.95 h 11.65 v -3.65 c -3.87,-3.75 -6.3,-8.96 -6.3,-14.74 v -1.15 z m 36.14,-4.17 -9.08,6.57 3.48,10.65 -9.05,-6.61 -9.05,6.61 3.48,-10.65 -9.08,-6.57 11.21,0.02 3.44,-10.66 3.44,10.66 z m 5.64,4.75 C 70.37,14.25 68.47,9.65 64.63,5.8 60.78,1.95 55.97,0 50.11,0 44.26,0 39.39,1.95 35.54,5.8 31.69,9.64 29.8,14.25 29.8,19.72 c 0,5.42 1.89,10.08 5.74,13.92 3.85,3.85 8.72,5.8 14.57,5.8 5.85,0 10.67,-1.9 14.52,-5.74 3.84,-3.85 5.74,-8.51 5.74,-13.98 m 16.2,6.5 c 0,1.89 -1.36,3.09 -3.47,3.09 h -6.12 v -6.28 h 6.12 c 2,-0.01 3.47,1.29 3.47,3.19 M 85.65,12.46 c 0,1.35 -1.19,2.44 -2.76,2.44 H 76.98 V 9.81 h 5.91 c 1.56,-0.01 2.76,1.08 2.76,2.65 m 9.479996,2.6 c 1.03,-1.25 1.52,-2.82 1.52,-4.6 0,-3.2 -1.14,-5.58 -3.41,-7.21 C 90.969996,1.57 88.09001,0.76 84.57,0.76 H 65.33 v 3.69 c 3.84,3.74 6.25,8.94 6.25,14.7 v 1.14 c 0,5.75 -2.41,10.95 -6.25,14.7 v 3.69 h 20.04 c 4.17,0 7.529996,-1.03 10.079996,-3.03 2.54,-2 3.85,-4.66 3.85,-7.97 0,-2.71 -0.81,-4.98 -2.39,-6.77 -1.57,-1.84 -3.19,-2.93 -4.82,-3.25 1.03,-0.49 2.01,-1.35 3.04,-2.6 M 133.1,19.72 C 133.1,14.25 131.2,9.64 127.36,5.8 123.51,1.95 118.7,0 112.85,0 107,0 102.12,1.95 98.269996,5.8 c -0.4,0.4 -0.48,0.59 -0.84,1.01 0.36,1.02 0.48,2.26 0.52,3.53 0.13,3.76 -1.87,6.06 -3.16,7.06 1.99,1.03 6.120004,4.43 5.940004,10.3 -0.07,2.37 -0.42,4.07 -1.990004,6.37 C 102.39,37.5 107.06,39.43 112.83,39.43 c 5.85,0 10.67,-1.9 14.51,-5.74 3.86,-3.84 5.76,-8.5 5.76,-13.97 M 147.77,9.4 c 0,1.63 -1.32,2.94 -2.94,2.94 -1.62,0 -2.94,-1.31 -2.94,-2.94 0,-1.62 1.32,-2.94 2.94,-2.94 1.62,0.01 2.94,1.32 2.94,2.94 M 161.59,5.58 C 157.78,1.88 153.04,0 147.29,0 c -5.85,0 -10.73,1.95 -14.57,5.79 -0.71,0.71 -1.28,1.47 -1.85,2.23 2.17,3.26 3.44,7.15 3.44,11.33 v 1.15 c 0,4.08 -1.24,7.86 -3.3,11.07 0.54,0.7 1.06,1.41 1.71,2.07 3.85,3.84 8.72,5.79 14.57,5.79 5.71,0 10.43,-1.81 14.23,-5.47 L 147.36,19.81 Z"
   id="path1"
   style="fill:#ffffff;fill-opacity:1" />
<g
   class="st2"
   id="g8"
   transform="translate(-10.447534,-36.92943)">
	<path
   class="st3"
   d="m 73.67,21.97 h 1.84 v 11.9 h -2.55 v -8.28 l -1.19,0.83 -1.33,-2.11 z"
   id="path2" />
	<path
   class="st3"
   d="m 81.66,21.83 c 2.77,0 4.11,2.38 4.11,6.09 0,3.71 -1.31,6.08 -4.08,6.08 -2.77,0 -4.15,-2.38 -4.15,-6.08 0.01,-3.71 1.35,-6.09 4.12,-6.09 z m 0.04,9.79 c 0.97,0 1.36,-0.92 1.36,-3.71 0,-2.8 -0.43,-3.71 -1.39,-3.71 -0.95,0 -1.39,0.99 -1.39,3.71 -0.01,2.76 0.57,3.71 1.42,3.71 z"
   id="path3" />
	<path
   class="st3"
   d="m 86.46,32.1 1.41,-1.89 c 0.59,0.68 1.34,1.31 2.35,1.31 1.04,0 1.5,-0.54 1.5,-1.16 0,-0.9 -0.7,-1.31 -2.02,-1.31 H 88.95 V 26.5 h 0.68 c 0.9,0 1.63,-0.37 1.63,-1.19 0,-0.51 -0.29,-1 -1.09,-1 -0.73,0 -1.39,0.26 -2.06,1.07 l -1.39,-1.84 c 0.73,-1.17 2.01,-1.78 3.69,-1.78 2.09,0 3.57,1.17 3.57,3.04 0,1.41 -0.58,2.24 -1.77,2.79 v 0.05 c 1.46,0.29 2.23,1.39 2.23,2.82 0,2.24 -1.77,3.6 -4.05,3.6 -1.99,0.01 -3.3,-0.89 -3.93,-1.96 z"
   id="path4" />
	<path
   class="st3"
   d="m 97.69,30.63 c 0.95,0 1.6,0.83 1.6,1.6 0,0.9 -0.65,1.73 -1.6,1.73 -1.09,0 -1.73,-0.83 -1.73,-1.73 0,-0.76 0.65,-1.6 1.73,-1.6 z"
   id="path5" />
	<path
   class="st3"
   d="m 100.31,21.97 h 7.82 v 1.73 l -4.03,10.17 h -2.79 l 3.77,-9.35 h -4.78 v -2.55 z"
   id="path6" />
	<path
   class="st3"
   d="m 113.57,21.97 h 6.88 v 2.55 h -4.16 v 2.52 h 3.65 v 2.55 h -3.65 v 4.28 h -2.72 z"
   id="path7" />
	<path
   class="st3"
   d="m 122.67,21.97 h 2.74 l 3.67,5.01 3.47,-5.01 h 2.57 v 11.9 h -2.72 v -7.58 l -3.31,4.64 h -0.39 l -3.3,-4.59 v 7.53 h -2.72 v -11.9 z"
   id="path8" />
</g>
</svg>
