<?xml version="1.0" encoding="UTF-8" standalone="no"?>
<!-- Created with Inkscape (http://www.inkscape.org/) -->

<svg
   version="1.1"
   id="svg1"
   width="804.46753"
   height="397.33368"
   viewBox="0 0 804.46752 397.33368"
   xmlns="http://www.w3.org/2000/svg"
   xmlns:svg="http://www.w3.org/2000/svg">
  <defs
     id="defs1" />
  <g
     id="g1"
     transform="translate(1.1865821,-0.59264964)">
    <g
       id="group-R5"
       transform="translate(-1.186529,0.59326455)"
       style="fill:#ffffff;fill-opacity:1">
      <path
         id="path2"
         d="M 692.34,799.059 C 661.133,695.672 572.855,639.59 515.934,606.68 445.621,568.672 371.043,539.121 293.762,518.691 343.48,692.422 402.66,799.898 458.168,968.262 c 25.422,77.258 48.305,148.158 65.395,211.858 12.359,-4.83 24.265,-10.74 35.589,-17.66 111.86,-68.92 171.75,-235.858 133.188,-363.401 z m 241.383,223.301 c -27.403,207.76 -175.278,395.47 -378.524,455.07 -12.183,3.49 -24.531,6.37 -37.004,8.61 -3.453,4.42 -7.175,8.62 -11.16,12.57 -60.308,57.2 -157.765,38.42 -211.855,-10.45 -8.676,-8.12 -15.891,-17.68 -21.328,-28.24 -37.149,-18.08 -64.973,-42.38 -75.567,-74.72 -15.601,-45.77 -6.699,-96.34 23.586,-134.03 10.805,-12.09 23.727,-22.09 38.137,-29.53 C 252.664,985.059 189.387,850.332 90.5195,477.02 L 87.5547,465.73 C 37.6992,452.59 4.64453,440.871 1.53906,427.172 -7.07813,389.461 22.7266,330.141 35.2969,327.59 c 4.3789,-0.84 9.7461,-0.988 14.125,-1.551 C 17.9219,207.398 3.51953,134.941 19.1914,68.6992 34.3047,5 133.738,-17.5898 184.164,14.4688 c 62.852,39.832 37.141,150.2812 69.77,334.7302 221.039,56.5 505.64,200.992 616.23,353.11 27.117,36.3 84.465,160.722 63.559,320.051"
         style="fill:#ffffff;fill-opacity:1;fill-rule:nonzero;stroke:none"
         transform="matrix(0.13333333,0,0,-0.13333333,0,397.33333)" />
      <path
         id="path3"
         d="m 1384.13,485.219 c -25.7,-72.028 -102.96,-112.989 -168.07,-131.36 -23.02,-6.488 -42.37,-12.281 -46.75,11.301 -9.18,47.461 64.12,130.219 120.34,164.969 38.27,23.73 78.67,48.73 96.89,34.461 18.21,-14.258 0.7,-70.899 -2.41,-79.238 z m 206.92,230.511 c -57.77,100.981 -224.29,96.18 -262.14,95.04 C 1059.43,802.859 911.262,546.102 888.664,504.988 875.953,481.68 824.828,384.52 855.895,353.59 c 18.082,-18.09 46.328,3.949 83.335,-12.012 59.743,-25.707 45.055,-108.187 96.18,-151.558 51.13,-43.36 140.4,-20.329 197.74,-4.938 240.1,64.969 335.87,302.387 340.67,314.539 25,66.391 56.21,147.738 17.23,216.109"
         style="fill:#ffffff;fill-opacity:1;fill-rule:nonzero;stroke:none"
         transform="matrix(0.13333333,0,0,-0.13333333,0,397.33333)" />
      <path
         id="path4"
         d="m 4170.23,562.762 c -39.54,-63.422 -47.17,-157.063 -19.78,-172.742 34.46,-19.629 100.15,97.449 172.6,81.64 69.91,-15.109 51.97,-133.469 130.08,-174.43 121.47,-63.558 350.56,125.141 387.28,155.36 95.62,78.808 153.53,160.031 180.36,144.629 16.53,-9.457 14.13,-51.688 2.41,-82.34 -29.52,-78.25 -129.66,-76.84 -152.41,-148.719 -46.6,-147.89 9.33,-244.351 79.95,-243.219 70.62,1.129 94.07,32.481 329.94,214.539 13.21,11.731 30.35,18.079 48.01,17.801 41.25,-3.961 54.53,-59.32 84.75,-92.383 89.69,-98.859 336.44,-6.91 384.88,11.172 67.8,25.282 185.17,70.61 222.17,168.641 6.93,18.359 24.72,65.391 1.41,102.668 -11.56,20.09 -32.39,33.07 -55.5,34.609 -28.25,0 -46.76,-28.25 -64.41,-49.008 -5.23,-6.492 -89.26,-106.628 -188.41,-131.21 -47.03,-11.579 -116.24,-10.879 -138.7,25.281 -17.09,28.238 -1.98,67.09 3.95,77.398 57.77,100.422 302.26,139.832 372.45,260.02 16.2,28.801 25.84,60.82 28.25,93.781 1.69,24.578 3.96,56.5 -12.29,69.629 -30.08,25.152 -116.38,-22.449 -145.05,-38.41 -450.98,-251.41 -556.06,-441.367 -599.71,-408.61 -12.43,9.332 20.06,84.75 52.54,206.911 26,98.871 43.37,141.242 19.07,178.39 -24.29,37.149 -76.41,42.379 -84.74,43.789 -59.03,5.93 -109.18,-28.25 -174.29,-84.738 C 4913.71,718.68 4788.86,579.141 4684.2,522.93 c -19.63,-10.59 -50.85,-24.711 -77.97,-12.711 -27.11,12 -38.55,48.019 -40.52,54.941 -16.25,58.328 28.24,88 9.88,137.699 -9.42,23.313 -27.35,42.141 -50.15,52.692 -30.08,14.121 -64.26,10.031 -115.11,-9.461 -78.67,-30.649 -209.73,-135.309 -240.1,-183.328"
         style="fill:#ffffff;fill-opacity:1;fill-rule:nonzero;stroke:none"
         transform="matrix(0.13333333,0,0,-0.13333333,0,397.33333)" />
      <path
         id="path5"
         d="m 3958.37,849.898 c -22.46,159.322 -168.92,312.982 -262.57,291.662 -59.78,-13.99 -61.42,-90.94 -112.79,-256.271 104.57,-28.328 229.64,-53.68 375.3,-67.109 1.29,11.152 1.47,21.8 0.06,31.718"
         style="fill:#ffffff;fill-opacity:1;fill-rule:nonzero;stroke:none"
         transform="matrix(0.13333333,0,0,-0.13333333,0,397.33333)" />
      <path
         id="path6"
         d="m 4470.5,960.91 c -25.14,43.64 7.49,100.14 24.16,129.09 23,38.35 55.91,69.25 94.78,89.82 -34.7,376.57 49.5,534.73 68.21,597.46 38.42,128.81 98.87,364.68 53.39,504.93 -4.14,12.31 -9.59,24.16 -16.24,35.31 -33.76,58.19 -89.84,94.07 -201.97,165.68 -88,56.49 -256.22,155.36 -466.1,153.95 -35.25,-1.02 -70.38,-4.7 -105.09,-11.02 -161.57,-24.29 -206.76,-64.54 -286.71,-78.39 -217.65,-37.99 -396.31,171.47 -439.82,122.03 -11.58,-13.13 -3.67,-39.97 12.43,-93.64 20.64,-69.2 52.61,-134.49 94.63,-193.22 -142.66,110.88 -210.3,243.64 -173.16,321.47 42.37,88.55 211.86,87.14 283.47,86.58 276.97,-2.26 465.38,-159.18 497.02,-117.8 18.5,24.29 -33.19,95.2 -64.83,131.07 -125.7,142.66 -349.71,196.61 -536.71,168.65 -117.51,-17.52 -186.01,-21.19 -344.91,-228.81 -142.51,-186.16 -340.39,-433.47 -609.31,-788.54 -43.78,-57.91 -98.86,-106.08 -171.04,-113 -323.86,-31.92 -1083.3,137.15 -1410.841,93.22 -78.668,-10.59 -157.906,-34.04 -189.543,-95.34 -31.636,-61.3 -1.269,-138.69 12.286,-172.03 54.238,-132.76 170.48,-202.96 209.464,-225.98 266.804,-156.49 966.354,-508.459 1007.464,-427.53 22.88,45.34 -200.99,141.24 -334.04,448.58 -50.56,116.8 -78.67,181.49 -51.13,217.51 42.59,55.44 202.38,22.26 806.23,-232.27 6.34,6.36 12.52,11.92 18.47,16.45 17.69,13.18 37.32,23.53 58.2,30.65 30.67,5.81 62.04,7.05 93.07,3.67 53.67,-10.17 80.37,-87.01 88.41,-110.02 6.74,-19.15 11.17,-38.36 13.87,-57.29 96.13,-41.73 200.71,-87.6 314.49,-137.92 16.22,8.15 34.43,14.67 54.83,17.95 26.13,4.24 56.5,8.9 75.42,-7.91 17.26,-14.85 22.27,-42.95 18.42,-75.98 86.26,-38.36 177.15,-78.96 273.24,-122.04 28.23,-10.852 66.54,-27.168 114.72,-45.859 53.68,169.829 88.35,277.869 72.56,295.009 -26.83,29.1 -88.13,44.92 -122.73,87.29 -56.07,69.91 -49.85,141.23 -6.21,188.41 117.08,126.83 828.65,-54.8 919.89,-489.4 17.99,-85.88 9.26,-164.641 -9.14,-233.501 275.53,3.473 331.96,59.563 350.65,81.11 7.4,8.523 13.4,18.121 18.4,28.652 -28.84,-0.84 -85.54,2.937 -108.65,42.949"
         style="fill:#ffffff;fill-opacity:1;fill-rule:nonzero;stroke:none"
         transform="matrix(0.13333333,0,0,-0.13333333,0,397.33333)" />
      <path
         id="path7"
         d="m 2931.41,477.02 c -49.43,24.582 -125.13,-85.442 -169.48,-61.579 -50.71,27.27 21.32,185.45 -51.56,251.84 -34.32,31.778 -86.15,27.25 -112.98,25 -217.23,-18.793 -279.38,-308.75 -439.55,-298.172 -63.27,6.11 -117.59,47.621 -140.1,107.071 -17.52,55.371 13.41,112 49.01,165.39 163.83,245.61 311.85,244.34 399.7,434.03 8.69,18.94 54.05,120.32 38.16,231.55 -2.7,18.93 -7.13,38.14 -13.87,57.29 -8.04,23.01 -34.74,99.85 -88.41,110.02 -31.03,3.38 -62.4,2.14 -93.07,-3.67 -20.88,-7.12 -40.51,-17.47 -58.2,-30.65 -5.95,-4.53 -12.13,-10.09 -18.47,-16.45 -92.42,-92.8 -219.94,-364.9 -219.94,-364.9 -97.59,-208.329 -142.51,-278.661 -196.6,-445.899 -11.87,-37.422 -10.17,-35.871 -15.82,-49.993 -81.64,-208.039 -291.66,-236.429 -290.11,-331.339 0.71,-38.289 35.59,-90.821 76.27,-80.661 87,21.903 156.92,220.481 231.77,175.422 24.3,-14.82 65.11,-127.672 165.54,-168.492 61.43,-25.137 122.59,-4.238 188.55,18.492 202.25,69.489 243.07,202.692 329.37,184.75 88.7,-18.359 64.69,-211.019 180.79,-202.82 105.65,7.621 178.38,37.012 263.13,120.621 50,49.289 24.15,154.231 -14.13,173.149"
         style="fill:#ffffff;fill-opacity:1;fill-rule:nonzero;stroke:none"
         transform="matrix(0.13333333,0,0,-0.13333333,0,397.33333)" />
      <path
         id="path8"
         d="m 2949.35,1204.27 c -18.92,16.81 -49.29,12.15 -75.42,7.91 -20.4,-3.28 -38.61,-9.8 -54.83,-17.95 -43.07,-21.64 -71.63,-55.15 -86.41,-73.01 -43.36,-52.54 -106.77,-162.279 -66.8,-211.861 23.86,-28.961 73.58,-24.429 93.07,-22.597 76.13,7.488 123.3,64.968 139.55,84.75 36.81,44.808 63.39,106.558 69.26,156.778 3.85,33.03 -1.16,61.13 -18.42,75.98"
         style="fill:#ffffff;fill-opacity:1;fill-rule:nonzero;stroke:none"
         transform="matrix(0.13333333,0,0,-0.13333333,0,397.33333)" />
      <path
         id="path9"
         d="m 3599.06,397.082 v -0.133 c -30.51,-12.578 -154.38,-63.277 -193.22,-18.929 -34.18,39.121 21.75,124.57 86.72,269.199 42.27,94.121 70.22,172.941 90.45,238.07 51.37,165.331 53.01,242.281 112.79,256.271 93.65,21.32 240.11,-132.34 262.57,-291.662 1.41,-9.918 1.23,-20.566 -0.06,-31.718 -16.32,-141.289 -236.85,-370.95 -359.25,-421.098 z m 620.18,644.618 c -91.24,434.6 -802.81,616.23 -919.89,489.4 -43.64,-47.18 -49.86,-118.5 6.21,-188.41 34.6,-42.37 95.9,-58.19 122.73,-87.29 15.79,-17.14 -18.88,-125.18 -72.56,-295.009 -29.95,-94.7 -65.79,-208.559 -102.14,-336.75 -50.72,-178.391 -67.52,-284.75 -23.73,-376.559 28.62,-52.363 71.39,-95.633 123.44,-124.852 200.7,-105.3589 627.67,156.782 795.46,524.989 19.96,44.082 44.63,98.461 61.34,160.98 18.4,68.86 27.13,147.621 9.14,233.501"
         style="fill:#ffffff;fill-opacity:1;fill-rule:nonzero;stroke:none"
         transform="matrix(0.13333333,0,0,-0.13333333,0,397.33333)" />
      <path
         id="path10"
         d="m 4754.82,1194.24 c -27.96,26.42 -77.54,14.55 -110.31,6.64 -19.31,-4.79 -37.77,-11.91 -55.07,-21.06 -38.87,-20.57 -71.78,-51.47 -94.78,-89.82 -16.67,-28.95 -49.3,-85.45 -24.16,-129.09 23.11,-40.012 79.81,-43.789 108.65,-42.949 8.73,0.258 15.01,0.918 16.92,1.141 89.54,10.878 135.73,93.358 143.78,107.498 24.43,43.64 54.23,130.64 14.97,167.64"
         style="fill:#ffffff;fill-opacity:1;fill-rule:nonzero;stroke:none"
         transform="matrix(0.13333333,0,0,-0.13333333,0,397.33333)" />
    </g>
  </g>
</svg>
