<?xml version="1.0" encoding="utf-8"?>
<!-- Generator: Adobe Illustrator 26.0.1, SVG Export Plug-In . SVG Version: 6.00 Build 0)  -->
<svg version="1.1" id="Слой_1" xmlns="http://www.w3.org/2000/svg" xmlns:xlink="http://www.w3.org/1999/xlink" x="0px" y="0px"
	 viewBox="0 0 206.93 130.39" style="enable-background:new 0 0 206.93 130.39;" xml:space="preserve">
<style type="text/css">
	.st0{display:none;fill:#221E1F;}
	.st1{fill:#FFFFFF;}
	.st2{display:none;}
	.st3{display:inline;fill:#FFFFFF;}
</style>
<rect class="st0" width="206.93" height="130.39"/>
<path class="st1" d="M51.26,63.89c0-5.77,2.43-10.99,6.3-14.74v-3.65H45.91v12.84H34.32V45.51H22.67v37.92h11.64V68.48h11.59v14.95
	h11.65v-3.65c-3.87-3.75-6.3-8.96-6.3-14.74V63.89z M87.4,59.72l-9.08,6.57l3.48,10.65l-9.05-6.61l-9.05,6.61l3.48-10.65l-9.08-6.57
	l11.21,0.02l3.44-10.66l3.44,10.66L87.4,59.72z M93.04,64.47c0-5.47-1.9-10.07-5.74-13.92c-3.85-3.85-8.66-5.8-14.52-5.8
	c-5.85,0-10.72,1.95-14.57,5.8c-3.85,3.84-5.74,8.45-5.74,13.92c0,5.42,1.89,10.08,5.74,13.92c3.85,3.85,8.72,5.8,14.57,5.8
	c5.85,0,10.67-1.9,14.52-5.74C91.14,74.6,93.04,69.94,93.04,64.47 M109.24,70.97c0,1.89-1.36,3.09-3.47,3.09h-6.12v-6.28h6.12
	C107.77,67.77,109.24,69.07,109.24,70.97 M108.32,57.21c0,1.35-1.19,2.44-2.76,2.44h-5.91v-5.09h5.91
	C107.12,54.55,108.32,55.64,108.32,57.21 M117.8,59.81c1.03-1.25,1.52-2.82,1.52-4.6c0-3.2-1.14-5.58-3.41-7.21
	c-2.27-1.68-5.15-2.49-8.67-2.49H88v3.69c3.84,3.74,6.25,8.94,6.25,14.7v1.14c0,5.75-2.41,10.95-6.25,14.7v3.69h20.04
	c4.17,0,7.53-1.03,10.08-3.03c2.54-2,3.85-4.66,3.85-7.97c0-2.71-0.81-4.98-2.39-6.77c-1.57-1.84-3.19-2.93-4.82-3.25
	C115.79,61.92,116.77,61.06,117.8,59.81 M155.77,64.47c0-5.47-1.9-10.08-5.74-13.92c-3.85-3.85-8.66-5.8-14.51-5.8
	c-5.85,0-10.73,1.95-14.58,5.8c-0.4,0.4-0.48,0.59-0.84,1.01c0.36,1.02,0.48,2.26,0.52,3.53c0.13,3.76-1.87,6.06-3.16,7.06
	c1.99,1.03,6.12,4.43,5.94,10.3c-0.07,2.37-0.42,4.07-1.99,6.37c3.65,3.43,8.32,5.36,14.09,5.36c5.85,0,10.67-1.9,14.51-5.74
	C153.87,74.6,155.77,69.94,155.77,64.47 M170.44,54.15c0,1.63-1.32,2.94-2.94,2.94c-1.62,0-2.94-1.31-2.94-2.94
	c0-1.62,1.32-2.94,2.94-2.94C169.12,51.22,170.44,52.53,170.44,54.15 M184.26,50.33c-3.81-3.7-8.55-5.58-14.3-5.58
	c-5.85,0-10.73,1.95-14.57,5.79c-0.71,0.71-1.28,1.47-1.85,2.23c2.17,3.26,3.44,7.15,3.44,11.33v1.15c0,4.08-1.24,7.86-3.3,11.07
	c0.54,0.7,1.06,1.41,1.71,2.07c3.85,3.84,8.72,5.79,14.57,5.79c5.71,0,10.43-1.81,14.23-5.47l-14.16-14.15L184.26,50.33z"/>
<g class="st2">
	<path class="st3" d="M73.67,21.97h1.84v11.9h-2.55v-8.28l-1.19,0.83l-1.33-2.11L73.67,21.97z"/>
	<path class="st3" d="M81.66,21.83c2.77,0,4.11,2.38,4.11,6.09c0,3.71-1.31,6.08-4.08,6.08c-2.77,0-4.15-2.38-4.15-6.08
		C77.55,24.21,78.89,21.83,81.66,21.83z M81.7,31.62c0.97,0,1.36-0.92,1.36-3.71c0-2.8-0.43-3.71-1.39-3.71
		c-0.95,0-1.39,0.99-1.39,3.71C80.27,30.67,80.85,31.62,81.7,31.62z"/>
	<path class="st3" d="M86.46,32.1l1.41-1.89c0.59,0.68,1.34,1.31,2.35,1.31c1.04,0,1.5-0.54,1.5-1.16c0-0.9-0.7-1.31-2.02-1.31
		h-0.75V26.5h0.68c0.9,0,1.63-0.37,1.63-1.19c0-0.51-0.29-1-1.09-1c-0.73,0-1.39,0.26-2.06,1.07l-1.39-1.84
		c0.73-1.17,2.01-1.78,3.69-1.78c2.09,0,3.57,1.17,3.57,3.04c0,1.41-0.58,2.24-1.77,2.79v0.05c1.46,0.29,2.23,1.39,2.23,2.82
		c0,2.24-1.77,3.6-4.05,3.6C88.4,34.07,87.09,33.17,86.46,32.1z"/>
	<path class="st3" d="M97.69,30.63c0.95,0,1.6,0.83,1.6,1.6c0,0.9-0.65,1.73-1.6,1.73c-1.09,0-1.73-0.83-1.73-1.73
		C95.96,31.47,96.61,30.63,97.69,30.63z"/>
	<path class="st3" d="M100.31,21.97h7.82v1.73l-4.03,10.17h-2.79l3.77-9.35h-4.78V21.97z"/>
	<path class="st3" d="M113.57,21.97h6.88v2.55h-4.16v2.52h3.65v2.55h-3.65v4.28h-2.72V21.97z"/>
	<path class="st3" d="M122.67,21.97h2.74l3.67,5.01l3.47-5.01h2.57v11.9h-2.72v-7.58l-3.31,4.64h-0.39l-3.3-4.59v7.53h-2.72V21.97z"
		/>
</g>
</svg>
